<svg id="Layer_1" data-name="Layer 1" xmlns="http://www.w3.org/2000/svg" viewBox="0 0 100 100"><title>software icon</title><circle cx="50.94" cy="51.83" r="42.17" style="fill:#fff"/><circle cx="50.94" cy="51.83" r="42.17" style="fill:none;stroke:#231f20;stroke-miterlimit:10;stroke-width:0.75px;stroke-dasharray:11.27113151550293,5.635565757751465,22.54226303100586,225.42263793945312"/><circle cx="50.94" cy="51.83" r="38.73" transform="translate(-21.73 51.2) rotate(-45)" style="fill:none;stroke:#565658;stroke-miterlimit:10;stroke-width:0.75px;stroke-dasharray:121.63237762451172,121.63237762451172"/><circle cx="50.94" cy="51.83" r="18.13" transform="translate(-16.86 25.67) rotate(-24.39)" style="fill:none;stroke:#231f20;stroke-miterlimit:10;stroke-width:0.75px;stroke-dasharray:28.465585708618164,28.465585708618164"/><text transform="matrix(0.86, -0.5, 0.5, 0.86, 19.06, 35.95)" style="font-size:12px;fill:#231f20;font-family:MyriadPro-Regular, Myriad Pro">%</text><text transform="matrix(0.99, -0.16, 0.16, 0.99, 66.88, 35.74)" style="font-size:7.326109886169434px;fill:#231f20;font-family:MyriadPro-Regular, Myriad Pro">%</text><text transform="matrix(1.99, -0.78, 0.65, 0.76, 52.01, 28.19)" style="font-size:5.218090057373047px;fill:#231f20;font-family:MyriadPro-Regular, Myriad Pro">/</text><text transform="matrix(2.27, 0.6, -0.5, 0.87, 50.21, 27.03)" style="font-size:4.926059722900391px;fill:#231f20;font-family:MyriadPro-Regular, Myriad Pro">/</text><text transform="matrix(0.86, -0.5, 0.5, 0.86, 58.72, 27.95)" style="font-size:12px;fill:#231f20;font-family:MyriadPro-Regular, Myriad Pro">*</text><text transform="translate(41.98 25.48) rotate(-30.2) scale(1.38 1)" style="font-size:8.713029861450195px;fill:#231f20;font-family:MyriadPro-Regular, Myriad Pro">1</text><text transform="matrix(1.19, -0.69, 0.5, 0.86, 77.15, 35.81)" style="font-size:8.73501968383789px;fill:#231f20;font-family:MyriadPro-Regular, Myriad Pro">1</text><text transform="translate(32.81 30.72) rotate(-30.2) scale(1.22 1)" style="font-size:9.864680290222168px;fill:#231f20;font-family:MyriadPro-Regular, Myriad Pro">2</text><text transform="matrix(1.04, -0.6, 0.5, 0.86, 66.97, 25.59)" style="font-size:7.315010070800781px;fill:#231f20;font-family:MyriadPro-Regular, Myriad Pro">5</text><rect x="16.82" y="34.91" width="18.72" height="21.8" transform="translate(-16.07 14.2) rotate(-23.44)" style="fill:#0d0607"/><path d="M14.19,40l8.2,18.92,16.73-7.25-8.2-18.92ZM23,55.28a.53.53,0,1,1,.28-.7A.53.53,0,0,1,23,55.28Zm-.88-2a.53.53,0,1,1,.28-.7A.53.53,0,0,1,22.13,53.25Zm-.88-2a.53.53,0,1,1,.28-.7A.53.53,0,0,1,21.25,51.21Zm4.16,3a.53.53,0,1,1,.28-.7A.53.53,0,0,1,25.41,54.25Zm-.88-2a.53.53,0,1,1,.28-.7A.53.53,0,0,1,24.52,52.21Zm-.88-2a.53.53,0,1,1,.28-.7A.53.53,0,0,1,23.64,50.17ZM28.33,53a.53.53,0,1,1,.28-.7A.53.53,0,0,1,28.33,53Zm-.88-2a.53.53,0,1,1,.28-.7A.53.53,0,0,1,27.45,50.94Zm-.88-2a.53.53,0,1,1,.28-.7A.53.53,0,0,1,26.56,48.91Zm4.16,3a.53.53,0,1,1,.28-.7A.53.53,0,0,1,30.72,51.94Zm-.88-2a.53.53,0,1,1,.28-.7A.53.53,0,0,1,29.83,49.91Zm-.88-2a.53.53,0,1,1,.28-.7A.53.53,0,0,1,29,47.87Zm4.69,2.8a.53.53,0,1,1,.28-.7A.53.53,0,0,1,33.64,50.68Zm-.88-2a.53.53,0,1,1,.28-.7A.53.53,0,0,1,32.76,48.64Zm-.88-2a.53.53,0,1,1,.28-.7A.53.53,0,0,1,31.87,46.6Zm4.16,3a.53.53,0,1,1,.28-.7A.53.53,0,0,1,36,49.64Zm-.88-2a.53.53,0,1,1,.28-.7A.53.53,0,0,1,35.15,47.6Zm-.88-2a.53.53,0,1,1,.28-.7A.53.53,0,0,1,34.26,45.57Zm-1.7-6L18,45.85l-1.78-4.12,14.54-6.3Z" style="fill:#f9f9fa"/><path d="M57.2,62.29s.38,3.33,2.21.36" style="fill:none;stroke:#070404;stroke-miterlimit:10"/><polyline points="48.6 43.67 45.07 61.74 70.59 66.67 74.11 48.52" style="fill:none;stroke:#070404;stroke-miterlimit:10"/><path d="M49.5,43.85l9.34,1.65s1.74.51,1.92,1.24L57.68,63.38,46.09,61.12Z" style="fill:#fff;stroke:#0a0505;stroke-miterlimit:10;stroke-width:0.75px"/><path d="M61.63,47s.4-.72,2.53-.43L73,48.26,69.6,65.61,58.28,63.47Z" style="fill:#fff;stroke:#0a0505;stroke-miterlimit:10;stroke-width:0.75px"/><polyline points="56.38 67.25 58.43 68.34 57.38 70.5" style="fill:none;stroke:#231f20;stroke-miterlimit:10"/></svg>