<svg id="Layer_1" data-name="Layer 1" xmlns="http://www.w3.org/2000/svg" viewBox="0 0 100 100"><title>software icon</title><rect x="11.67" y="15.67" width="78" height="76" rx="12" ry="12" style="fill:#fff;stroke:#b1b3b6;stroke-miterlimit:10;stroke-width:0.75px"/><path d="M73,12.19a11,11,0,0,1,.58-3.53H59.3c-.38,3.13-3.34,5.56-6.93,5.56s-6.56-2.43-6.93-5.56H31.15a11,11,0,0,1,.58,3.53c0,5.16-3.59,9.56-8.64,11.35v0H81.64v0C76.58,21.75,73,17.35,73,12.19Z" style="fill:#231f20;stroke:#fff;stroke-miterlimit:10"/><circle cx="52.36" cy="7" r="7.67" style="fill:none;stroke:#fff;stroke-miterlimit:10;stroke-width:2px"/><line x1="22.67" y1="31" x2="85.67" y2="31" style="fill:none;stroke:#231f20;stroke-miterlimit:10"/><line x1="22.67" y1="83.67" x2="85.67" y2="83.67" style="fill:none;stroke:#231f20;stroke-miterlimit:10"/><line x1="42" y1="73.1" x2="85.67" y2="73.1" style="fill:none;stroke:#231f20;stroke-miterlimit:10;stroke-width:0.75px"/><line x1="42" y1="64.57" x2="85.67" y2="64.57" style="fill:none;stroke:#231f20;stroke-miterlimit:10;stroke-width:0.75px"/><line x1="42" y1="52.05" x2="85.67" y2="52.05" style="fill:none;stroke:#231f20;stroke-miterlimit:10;stroke-width:0.75px"/><line x1="42" y1="43.52" x2="85.67" y2="43.52" style="fill:none;stroke:#231f20;stroke-miterlimit:10;stroke-width:0.75px"/><rect x="24.67" y="41.5" width="10.5" height="10.5" style="fill:#231f20;stroke:#231f20;stroke-miterlimit:10;stroke-width:2px"/><polyline points="34.6 43.49 28.07 50.01 25.23 46.32" style="fill:none;stroke:#fff;stroke-miterlimit:10;stroke-width:2px"/><rect x="24.67" y="63.25" width="10.5" height="10.5" style="fill:#231f20;stroke:#231f20;stroke-miterlimit:10;stroke-width:2px"/><polyline points="34.6 65.24 28.07 71.76 25.23 68.07" style="fill:none;stroke:#fff;stroke-miterlimit:10;stroke-width:2px"/></svg>