<svg id="Layer_1" data-name="Layer 1" xmlns="http://www.w3.org/2000/svg" viewBox="0 0 100 100"><defs><style>.cls-1,.cls-3,.cls-4,.cls-5{fill:none;}.cls-1,.cls-5{stroke:#fff;}.cls-1,.cls-2,.cls-3,.cls-4,.cls-5{stroke-miterlimit:10;}.cls-1{stroke-width:2px;}.cls-2{fill:#fff;}.cls-2,.cls-3{stroke:#dadbdc;stroke-width:3px;}.cls-4{stroke:#c9cacc;}.cls-5{stroke-width:4px;}</style></defs><title>software icon</title><circle class="cls-1" cx="50.27" cy="52.33" r="42.17"/><polygon class="cls-2" points="85.5 68.09 15.05 68.09 17.98 35.22 82.27 35.22 85.5 68.09"/><path class="cls-3" d="M17.69,36.39s3.23,7.34,11.16,9.39H68.47s10,1.17,14.38-7.63"/><path class="cls-3" d="M37.06,34.92S35,25.53,42.93,25.23h20s6.46-1.17,4.11,10"/><rect class="cls-4" x="48.63" y="40.5" width="5.28" height="12.33" rx="2.64" ry="2.64"/><path class="cls-5" d="M16,62l.22,3.63s-.44,1.65,2.64,1.65L22.6,68"/><path class="cls-5" d="M84.55,62l-.22,3.63s.44,1.65-2.64,1.65L77.95,68"/></svg>