<svg id="Layer_1" data-name="Layer 1" xmlns="http://www.w3.org/2000/svg" viewBox="0 0 100 100"><title>software icon</title><path d="M34.87,81.38,36,78.05c-.37,0-.75-.1-1.11-.17Z" style="fill:#fff"/><rect x="62.33" y="19" width="18.67" height="29.33" style="fill:#fff"/><path d="M50.5,47.74,50,44.55l-.52,3.19.52,0Z" style="fill:#fff"/><polygon points="49.93 9.33 74.96 28.42 100 47.5 49.93 47.5 -0.15 47.5 24.89 28.42 49.93 9.33" style="fill:#fff;stroke:#b8babc;stroke-miterlimit:10"/><path d="M80.88,46.33H16.08v40H44.2c-4.75-.94-8.32-4.51-8.32-8.75v-13c0-5,4.86-9,10.8-9h3.6c5.94,0,10.8,4,10.8,9v13c0,4.24-3.57,7.81-8.32,8.75H80.88Z" style="fill:#fff"/><path d="M48,86.33h4A11.89,11.89,0,0,0,54.73,86h-9.5A11.89,11.89,0,0,0,48,86.33Z" style="fill:#fff"/><path d="M40.51,78.05l1.13,3.33,0-3.5C41.25,78,40.88,78,40.51,78.05Z" style="fill:#fff"/></svg>