<svg id="Layer_1" data-name="Layer 1" xmlns="http://www.w3.org/2000/svg" viewBox="0 0 100 100"><title>software icon</title><rect x="6.33" y="53.67" width="88.33" height="37.33" style="fill:#fff;stroke:#000;stroke-miterlimit:10;stroke-width:0.75px"/><polygon points="50.83 76.33 6.76 53.83 50.83 36.67 94.91 53.83 50.83 76.33" style="fill:#fff;stroke:#000;stroke-miterlimit:10;stroke-width:0.75px"/><polyline points="20.33 60.33 20.33 18.33 80.67 18.33 80.67 60.33" style="fill:#fff;stroke:#0f8843;stroke-miterlimit:10;stroke-width:0.75px"/><line x1="33.67" y1="27.33" x2="77.67" y2="27.33" style="fill:none;stroke:#231f20;stroke-miterlimit:10;stroke-width:0.5px"/><line x1="33.67" y1="33.33" x2="77.67" y2="33.33" style="fill:none;stroke:#231f20;stroke-miterlimit:10;stroke-width:0.5px"/><text transform="translate(24.32 36.14) scale(0.9 1)" style="font-size:17.42061996459961px;fill:#231f20;font-family:AlbertusMedium-Regular, Albertus Medium">S</text><line x1="28.37" y1="21.67" x2="28.37" y2="23.41" style="fill:#231f20;stroke:#231f20;stroke-miterlimit:10"/><line x1="28.37" y1="36.4" x2="28.37" y2="38.15" style="fill:#231f20;stroke:#231f20;stroke-miterlimit:10"/><line x1="25" y1="41.67" x2="69" y2="41.67" style="fill:none;stroke:#231f20;stroke-miterlimit:10;stroke-width:0.5px"/><line x1="25" y1="47.67" x2="69" y2="47.67" style="fill:none;stroke:#231f20;stroke-miterlimit:10;stroke-width:0.5px"/><text transform="translate(70.72 49.72) scale(0.9 1)" style="font-size:17.126630783081055px;fill:#231f20;font-family:AlbertusMedium-Regular, Albertus Medium">S</text><line x1="74.7" y1="35.33" x2="74.7" y2="37.08" style="fill:#231f20;stroke:#231f20;stroke-miterlimit:10"/><line x1="74.7" y1="49.07" x2="74.7" y2="50.81" style="fill:#231f20;stroke:#231f20;stroke-miterlimit:10"/><line x1="64" y1="70.33" x2="94.67" y2="90.67" style="fill:none;stroke:#000;stroke-miterlimit:10;stroke-width:0.75px"/><line x1="6" y1="90.67" x2="36.67" y2="70.33" style="fill:none;stroke:#000;stroke-miterlimit:10;stroke-width:0.75px"/></svg>