<svg id="Layer_1" data-name="Layer 1" xmlns="http://www.w3.org/2000/svg" viewBox="0 0 100 100"><title>software icon</title><path d="M65.58,52.21c.27-.56.55-1.13.79-1.71L56.09,43.84l12.26-1c.07-.61.12-1.23.15-1.86l-11.93-3,11.37-4.93c-.13-.6-.29-1.19-.46-1.77L55.14,32.43,64.33,24c-.31-.52-.62-1-1-1.53L52,27.57l6-11c-.46-.38-.94-.73-1.42-1.09L47.39,24l2.12-12.37c-.55-.21-1.1-.43-1.67-.61L41.9,22.13l-2-12.4c-.3,0-.59,0-.89,0s-.59,0-.89,0l-2,12.4L30.16,11c-.57.18-1.11.4-1.67.61L30.61,24,21.44,15.5c-.48.36-1,.71-1.42,1.09l6,11-11.4-5.06c-.34.5-.65,1-1,1.53l9.19,8.39L10.52,31.36c-.16.59-.33,1.17-.46,1.77l11.37,4.93L9.5,41c0,.62.08,1.24.15,1.86l12.26,1L11.63,50.5c.24.58.51,1.15.79,1.71l11.82-3-7.51,9.56c.42.48.83,1,1.28,1.41l10.16-6.7-4,11.44c.55.32,1.12.62,1.7.91l7.39-9.58-.05,12.1c.63.12,1.27.21,1.91.29L39,57.14l3.87,11.44c.64-.08,1.28-.17,1.91-.29l-.05-12.1,7.39,9.58c.58-.29,1.14-.58,1.7-.91l-4-11.44L60,60.13c.45-.45.86-.93,1.28-1.41l-7.51-9.56ZM39,53.12A13.84,13.84,0,1,1,52.84,39.27,13.84,13.84,0,0,1,39,53.12Z" style="fill:#fff"/><path d="M84.92,84.83c.19-.36.39-.73.56-1.11l-6.61-4.61L87,78.76c.06-.4.1-.81.14-1.22l-7.78-2.22,7.59-3c-.07-.4-.17-.79-.26-1.18l-8.14.43,6.23-5.3c-.19-.35-.38-.7-.6-1l-7.61,3.07,4.2-7.09c-.29-.26-.6-.5-.91-.75l-6.22,5.39,1.67-8.08c-.36-.15-.71-.31-1.08-.44L70,64.52l-1-8.19-.58,0h-.59l-1.6,8.1L62.58,57c-.38.1-.74.24-1.11.36l1.11,8.18-5.83-5.8c-.32.22-.65.44-1,.68l3.7,7.36-7.38-3.59c-.24.32-.45.65-.67,1l5.85,5.72-8.09-1c-.12.38-.24.76-.34,1.16l7.36,3.5-7.91,1.68c0,.41,0,.82.06,1.22l8,.91L49.5,82.48c.14.39.31.76.48,1.14l7.84-1.74L52.67,88c.26.32.53.65.81,1l6.83-4.17-2.88,7.43c.36.22.72.43,1.09.63l5.07-6.13-.31,8c.41.1.83.16,1.25.23l2.8-7.43,2.28,7.61c.42,0,.85-.08,1.26-.15l.24-8,4.64,6.47c.39-.17.76-.36,1.14-.56l-2.36-7.61,6.52,4.63c.3-.29.59-.59.87-.9l-4.72-6.45Zm-17.49,0A9.1,9.1,0,1,1,76.85,76,9.1,9.1,0,0,1,67.43,84.82Z" style="fill:#fff"/><path d="M88,25.74c.17-.28.34-.56.49-.86l-5.06-4,6.46.08c.07-.32.12-.64.17-1L84,17.91l6.19-2c0-.32-.1-.63-.15-.95l-6.51,0,5.21-4c-.14-.29-.27-.57-.43-.85l-6.21,2.1,3.67-5.46c-.22-.22-.46-.43-.69-.64l-5.2,4,1.7-6.37c-.28-.14-.55-.28-.84-.4L77.08,8.87l-.46-6.58-.46-.07-.47,0L74,8.6,71.46,2.51c-.31.07-.6.16-.9.24l.52,6.57L66.69,4.43c-.27.16-.54.32-.8.5l2.62,6L62.79,7.77c-.2.24-.39.5-.58.76l4.41,4.83L60.22,12.2c-.11.3-.23.6-.32.91l5.72,3.12-6.38,1c0,.33,0,.65,0,1l6.37,1.09-5.7,3c.1.32.21.62.33.93l6.33-1-4.38,4.64c.2.27.39.54.6.8l5.63-3-2.63,5.79c.27.19.56.38.84.55l4.32-4.66-.6,6.33c.32.09.65.17,1,.24l2.57-5.8,1.48,6.17c.34,0,.68,0,1-.06l.55-6.33,3.41,5.37c.32-.12.63-.25.93-.39l-1.54-6.17,5,4c.26-.21.5-.45.74-.68L82,23.58Zm-14-.79A7.27,7.27,0,1,1,82,18.37,7.27,7.27,0,0,1,74.08,24.95Z" style="fill:#fff"/></svg>