<svg id="Layer_1" data-name="Layer 1" xmlns="http://www.w3.org/2000/svg" viewBox="0 0 100 100"><title>software icon</title><path d="M28.39,25.45A18.56,18.56,0,0,0,23,61.79L25.43,58a14.27,14.27,0,1,1,13.21-23.9l-.26.52H40l2-3.22A18.51,18.51,0,0,0,28.39,25.45Z" style="fill:#fff;stroke:#fff;stroke-miterlimit:10"/><polygon points="26.06 35.23 30.21 35.1 30.34 46.52 23.33 53.14 20.35 51.19 26.32 44.83 26.06 35.23" style="fill:#fff;stroke:#fff;stroke-miterlimit:10"/><rect x="67.98" y="53.83" width="10.51" height="7.14" style="fill:#fff;stroke:#bec0c2;stroke-miterlimit:10;stroke-width:0.75px"/><rect x="67.98" y="38.52" width="10.51" height="7.14" style="fill:#fff;stroke:#bec0c2;stroke-miterlimit:10;stroke-width:0.75px"/><rect x="67.98" y="24.11" width="10.51" height="7.14" style="fill:#fff;stroke:#bec0c2;stroke-miterlimit:10;stroke-width:0.75px"/><path d="M55.54,48.93C55.25,50.16,55,51.5,55,51.5S56.6,42.84,48,39.56c0,0-8.13-1.38-10.47,8.83,0,0-2.16,9.52,8.65,12.46,0,0,7,.09,9-9.69l.36-1.8A3.46,3.46,0,0,0,55.54,48.93Zm-7.81,9.58s-2.08,1.43-4.67-1.3a8.8,8.8,0,0,1-3.55-7.91q0-.2,0-.4s1.56-5.58,3.37-1.82c0,0,6.23,3,8.31,2.6,0,0,2.47-1.43,2.34.13C53.57,49.81,52.14,56.69,47.73,58.51Z" style="fill:#fff;stroke:#fff;stroke-miterlimit:10"/><path d="M32.55,63.09s.78-3,8.22-2.42c0,0,.17,11.25,3.81,13.07l.17-7.44-.87-1.12s-1-2.77,2.34-2.6c0,0,2.51-.43,2.34,1.64,0,0,.52,1.82-.52,2L47.95,74s2.94-.61,3.89-10.9l-.09-2.42s6.84-1,8.74,2.94c0,0,.61,2.51.35,8.65,0,0-.69,4.24-15.06,3.63,0,0-14.88.69-14.28-5.28C31.51,70.62,31.42,63.7,32.55,63.09Z" style="fill:#fff;stroke:#fff;stroke-miterlimit:10"/><polygon points="18.01 80.92 18.36 93.55 69.23 93.72 90 73.82 89.65 4.95 18.18 5.12 18.36 18.44 23.55 18.44 23.55 11.69 83.42 11.87 83.77 74.86 68.19 74.69 68.02 88.01 24.59 88.01 24.41 80.57 18.01 80.92" style="fill:#fff;stroke:#fff;stroke-miterlimit:10"/></svg>