<svg id="Layer_1" data-name="Layer 1" xmlns="http://www.w3.org/2000/svg" viewBox="0 0 100 100"><title>software icon</title><ellipse cx="51.02" cy="29.53" rx="11.33" ry="12.2" style="fill:#fff;stroke:#cdcfd0;stroke-miterlimit:10;stroke-width:0.75px"/><ellipse cx="75.62" cy="39.63" rx="8.59" ry="9.26" style="fill:#fff;stroke:#cdcfd0;stroke-miterlimit:10;stroke-width:0.75px"/><ellipse cx="25.24" cy="39.63" rx="8.59" ry="9.26" style="fill:#fff;stroke:#cdcfd0;stroke-miterlimit:10;stroke-width:0.75px"/><path d="M76,52.6l3.12,13.61-3.33,4L72.44,66l2.77-13.41A21.77,21.77,0,0,0,68,53.85c-3.33-5-9.58-8.45-16.75-8.45h-.35L54.6,61.15l-3.73,4.32-3.73-4.55,3.32-15.5c-7,.23-13.1,3.73-16.26,8.8a21.62,21.62,0,0,0-8.29-1.64l-.51,0,3.12,13.62-3.33,4L21.85,66l2.76-13.38A19.78,19.78,0,0,0,9.2,61V74.34l0,9.36H92.33V61.42C89.17,56.32,83.06,52.81,76,52.6Z" style="fill:#fff;stroke:#fff;stroke-miterlimit:10"/><path d="M20.55,48.42l-.44,2.14.93,0Z" style="stroke:#fff;stroke-miterlimit:10"/><path d="M80.34,50.54l-.49-2.12-.43,2.1h.14Z" style="stroke:#fff;stroke-miterlimit:10"/><path d="M50.64,41.08l-.22,1h.47Z" style="stroke:#fff;stroke-miterlimit:10"/></svg>