<svg id="Layer_1" data-name="Layer 1" xmlns="http://www.w3.org/2000/svg" viewBox="0 0 100 100"><title>software icon</title><circle cx="50.27" cy="52.33" r="42.17" style="fill:none;stroke:#fff;stroke-miterlimit:10;stroke-width:2px"/><polygon points="85.5 68.09 15.05 68.09 17.98 35.22 82.27 35.22 85.5 68.09" style="fill:#fff;stroke:#dadbdc;stroke-miterlimit:10;stroke-width:3px"/><path d="M17.69,36.39s3.23,7.34,11.16,9.39H68.47s10,1.17,14.38-7.63" style="fill:none;stroke:#dadbdc;stroke-miterlimit:10;stroke-width:3px"/><path d="M37.06,34.92S35,25.53,42.93,25.23h20s6.46-1.17,4.11,10" style="fill:none;stroke:#dadbdc;stroke-miterlimit:10;stroke-width:3px"/><rect x="48.63" y="40.5" width="5.28" height="12.33" rx="2.64" ry="2.64" style="fill:none;stroke:#c9cacc;stroke-miterlimit:10"/><path d="M16,62l.22,3.63s-.44,1.65,2.64,1.65L22.6,68" style="fill:none;stroke:#fff;stroke-miterlimit:10;stroke-width:4px"/><path d="M84.55,62l-.22,3.63s.44,1.65-2.64,1.65L77.95,68" style="fill:none;stroke:#fff;stroke-miterlimit:10;stroke-width:4px"/></svg>